{"title":"The.Last.Witch.Hunter.2015.HD-TS.XVID.AC3.HQ.Hive-CM8","uid":12661512,"size":1520864155,"categoryP":"video","categoryS":"movies","magnet":"?xt=urn:btih:43748a7da2c68b354382cef18f7ba66887f43cdd&amp;dn=The.Last.Witch.Hunter.2015.HD-TS.XVID.AC3.HQ.Hive-CM8&amp;tr=udp%3A%2F%2Ftracker.leechers-paradise.org%3A6969&amp;tr=udp%3A%2F%2Fzer0day.ch%3A1337&amp;tr=udp%3A%2F%2Fopen.demonii.com%3A1337&amp;tr=udp%3A%2F%2Ftracker.coppersurfer.tk%3A6969&amp;tr=udp%3A%2F%2Fexodus.desync.com%3A6969","seeders":31,"leechers":11,"uploader":"xxxlavalxxx","files":4,"time":1446301564,"description":"http://extraimago.com/image/0rk\r\n \nhttp://www.imdb.com/title/tt1618442/\r\n\r\n\r\nThe modern world holds many secrets, but the most astounding secret of all is that witches still live amongst us; vicious supernatural creatures intent on unleashing the Black Death upon the world. Armies of witch hunters battled the unnatural enemy across the globe for centuries, including KAULDER, a valiant warrior who managed to slay the all-powerful QUEEN WITCH, decimating her followers in the process. In the moments right before her death, the QUEEN curses KAULDER with her own immortality, forever separating him from his beloved wife and daughter in the afterlife. Today KAULDER is the only one of his kind remaining, and has spent centuries hunting down rogue witches, all the while yearning for his long-lost loved ones. However, unbeknownst to KAULDER, the QUEEN WITCH is resurrected and seeks revenge on her killer causing an epic battle that will determine the survival of the human race.\r\n\r\nDirector: Breck Eisner\r\nWriters: Cory Goodman, Matt Sazama\r\nStars: Vin Diesel, Rose Leslie, Elijah Wood\r\nGenres: Action | Adventure | Fantasy\r\nCountry: USA\r\nLanguage: English\r\n\r\n\r\nThe.Last.Witch.Hunter.2015.HD-TS.XVID.AC3.HQ.Hive-CM8\r\n\r\nThx Hive\r\n\r\nCM8 Doing It Right The First Time \r\n\r\nSources:\r\n\r\nVideo: Exclusive HD-CAM \r\nAudio: Sweet Line Big Thx to S4NDM4N \r\nthx guys\r\n\r\nNotes:\r\n\r\ngot exclusive cam very early, quality is very nice, no movements no focus problems, you can see the darker scenes too\r\nperfect for this kind of movie\r\naudio as usual perfect line from S4NDM4N, top notch man\r\n\r\nEncode:\r\n\r\nadded brightness,contrast and only slightly sharpness\r\nline is lipsynced to my video\r\n\r\ngot very nice\r\nwill do me till retail\r\nenjoy\r\n\r\nVideo: 720x272 @bitrate 1800 2pass\r\nAudio: English AC3 2.0 Line Stereo\r\nSample: yes included\r\n\r\nPS: video is complete, only 30secs removed due to security control\r\nNow some may say they have this source and line audio lol ya know its just a reencode beware laugh.gif\r\n \nhttp://www.imdb.com/title/tt1618442/\r\n\r\n\r\nGeneral\r\nComplete name                  : The.Last.Witch.Hunter.2015.HD-TS.XVID.AC3.HQ.Hive-CM8.avi\r\nFormat                         : AVI\r\nFormat/Info                    : Audio Video Interleave\r\nFile size                      : 1.40 GiB\r\nDuration                       : 1h 36mn\r\nOverall bit rate               : 2 070 Kbps\r\nWriting application            : Nandub v1.0rc2\r\nWriting library                : Nandub build 1853/release\r\n\r\nVideo\r\nID                             : 0\r\nFormat                         : MPEG-4 Visual\r\nFormat profile                 : Advanced   \r\nFormat settings, BVOP          : 2\r\nFormat settings, QPel          : Yes\r\nFormat settings, GMC           : No warppoints\r\nFormat settings, Matrix        : Default (H.263)\r\nMuxing mode                    : Packed bitstream\r\nCodec ID                       : XVID\r\nCodec ID/Hint                  : XviD\r\nDuration                       : 1h 36mn\r\nBit rate                       : 1 805 Kbps\r\nWidth                          : 720 pixels\r\nHeight                         : 272 pixels\r\nDisplay aspect ratio           : 2.647\r\nFrame rate                     : 25.000 fps\r\nColor space                    : YUV\r\nChroma subsampling             : 4:2:0\r\nBit depth                      : 8 bits\r\nScan type                      : Progressive\r\nCompression mode               : Lossy\r\nBits/(Pixel*Frame)             : 0.369\r\nStream size                    : 1.22 GiB (87%)\r\nWriting library                : XviD 1.2.1 (UTC 2008-12-04)\r\n\r\nAudio\r\nID                             : 1\r\nFormat                         : AC-3\r\nFormat/Info                    : Audio Coding 3\r\nMode extension                 : CM (complete main)\r\nFormat settings, Endianness    : Big\r\nCodec ID                       : 2000\r\nDuration                       : 1h 36mn\r\nBit rate mode                  : Constant\r\nBit rate                       : 256 Kbps\r\nChannel(s)                     : 2 channels\r\nChannel positions              : Front: L R\r\nSampling rate                  : 48.0 KHz\r\nBit depth                      : 16 bits\r\nCompression mode               : Lossy\r\nStream size                    : 177 MiB (12%)\r\nAlignment                      : Split accross interleaves\r\nInterleave, duration           : 40 ms (1.00 video frame)\r\nInterleave, preload duration   : 500 ms\r\n\r\n\r\nGreetz\r\n\r\nSugarB,iNCOMiNG,Izzy,MenaceIISociety,jiinx,SiMPLE,CherryBomb\r\nranbailey,ViSiON,UnKnOwN,YanKeeS,COPYxRIGHT,THC,VAiN,ACAB,DRs\r\nLKRG,Kingstoner,SiMPLE,TiTAN,cadance,PLAYNOW\r\nUnevano,BigVik,Rapeseed,SAFC,goldadvance,KaN1vE,Pinnz,Wayne,HiGH\r\nSeeN,jtr,Limey,ICONiK,TED,rkofan,mrtoke09\r\nMr Hive\r\n\r\nLOOKING FOR ANYTHING YOU WANT TO LOOK AND SOUND BETTER\r\n\r\nCOME FIND US WE DONT BITE \r\n  \r\n\r\n \nhttp://extraimago.com/image/0ro \nhttp://extraimago.com/image/0rt \nhttp://extraimago.com/image/0rx \nhttp://extraimago.com/image/0r6 \nhttp://extraimago.com/image/0rV \nhttp://extraimago.com/image/0ru \nhttp://extraimago.com/image/0rv \nhttp://extraimago.com/image/0rA","torrent":{"xt":"urn:btih:43748a7da2c68b354382cef18f7ba66887f43cdd","amp;dn":"The.Last.Witch.Hunter.2015.HD-TS.XVID.AC3.HQ.Hive-CM8","amp;tr":["udp%3A%2F%2Ftracker.leechers-paradise.org%3A6969","udp%3A%2F%2Fzer0day.ch%3A1337","udp%3A%2F%2Fopen.demonii.com%3A1337","udp%3A%2F%2Ftracker.coppersurfer.tk%3A6969","udp%3A%2F%2Fexodus.desync.com%3A6969"],"infoHash":"43748a7da2c68b354382cef18f7ba66887f43cdd","infoHashBuffer":{"type":"Buffer","data":[67,116,138,125,162,198,139,53,67,130,206,241,143,123,166,104,135,244,60,221]},"announce":[],"urlList":[]}}